<mxfile host="Electron" agent="Mozilla/5.0 (Windows NT 10.0; Win64; x64) AppleWebKit/537.36 (KHTML, like Gecko) draw.io/25.0.1 Chrome/128.0.6613.186 Electron/32.2.6 Safari/537.36" version="25.0.1">
  <diagram name="Страница-1" id="Page-1">
    <mxGraphModel dx="1674" dy="844" grid="1" gridSize="10" guides="1" tooltips="1" connect="1" arrows="1" fold="1" page="1" pageScale="1" pageWidth="827" pageHeight="1169" math="0" shadow="0">
      <root>
        <mxCell id="0" />
        <mxCell id="1" parent="0" />
        <UserObject label="" tags="Контейнер" id="2">
          <mxCell style="vsdxID=1;fillColor=none;gradientColor=none;strokeColor=none;spacingLeft=1;spacingRight=1;points=[[0.25,0,0],[0.5,0,0],[0.75,0,0],[1,0.25,0],[1,0.5,0],[1,0.75,0],[0.75,0.75,0],[0.5,0.75,0],[0.25,0.75,0],[0.25,0.75,0],[0.25,0.5,0],[0.25,0.25,0]];labelBackgroundColor=none;rounded=0;html=1;whiteSpace=wrap;" parent="1" vertex="1">
            <mxGeometry x="25" y="767" width="1137" height="702" as="geometry" />
          </mxCell>
        </UserObject>
        <mxCell id="3" style="vsdxID=2;fillColor=#ffffff;gradientColor=none;shape=stencil(UzV2Ls5ILEhVNTIoLinKz04tz0wpyVA1dlE1MsrMy0gtyiwBslSNXVWNndPyi1LTi/JL81Ig/IJEkEoQKze/DGRCBUSfAUiHkUElhGdoAOG7QZTmZOYhKTWlkVqYJFmKiXcDVVSSqRDNS0AGIj7SMnNyINGJLI8ef0AhSNwbuwIA);strokeColor=#000000;points=[[0.25,0,0],[0.5,0,0],[0.75,0,0],[1,0.25,0],[1,0.5,0],[1,0.75,0],[0.75,1,0],[0.5,1,0],[0.25,1,0],[0,0.75,0],[0,0.5,0],[0,0.25,0]];labelBackgroundColor=none;rounded=0;html=1;whiteSpace=wrap;" parent="2" vertex="1">
          <mxGeometry width="1137" height="702" as="geometry" />
        </mxCell>
        <mxCell id="4" value="&lt;div style=&quot;font-size: 1px&quot;&gt;&lt;p style=&quot;text-align:center;margin-left:0;margin-right:0;margin-top:0px;margin-bottom:0px;text-indent:0;vertical-align:middle;direction:ltr;&quot;&gt;&lt;/p&gt;&lt;/div&gt;" style="text;vsdxID=2;fillColor=none;gradientColor=none;strokeColor=none;points=[[0.25,0,0],[0.5,0,0],[0.75,0,0],[1,0.25,0],[1,0.5,0],[1,0.75,0],[0.75,1,0],[0.5,1,0],[0.25,1,0],[0,0.75,0],[0,0.5,0],[0,0.25,0]];labelBackgroundColor=none;rounded=0;html=1;whiteSpace=wrap;verticalAlign=middle;align=center;overflow=width;;html=1;" parent="3" vertex="1">
          <mxGeometry width="1137.2" height="702" as="geometry" />
        </mxCell>
        <mxCell id="41" style="vsdxID=101;fillColor=none;gradientColor=none;edgeStyle=none;dashed=1;strokeColor=none;points=[[0.02,1.07,0],[0.98,5.76,0]];labelBackgroundColor=#ffffff;rounded=0;html=1;whiteSpace=wrap;;flipV=1;" parent="3" vertex="1">
          <mxGeometry x="168.07999999999998" y="243" width="195" height="66" as="geometry" />
        </mxCell>
        <mxCell id="42" value="&lt;div style=&quot;font-size: 1px&quot;&gt;&lt;p style=&quot;text-align:center;margin-left:0;margin-right:0;margin-top:0px;margin-bottom:0px;text-indent:0;vertical-align:middle;direction:ltr;&quot;&gt;&lt;font style=&quot;font-size:11.29px;font-family:Calibri;color:#000000;direction:ltr;letter-spacing:0px;line-height:120%;opacity:1&quot;&gt;&amp;lt;&amp;lt;расширить&amp;gt;&amp;gt;&lt;br/&gt;&lt;/font&gt;&lt;/p&gt;&lt;/div&gt;" style="text;vsdxID=101;fillColor=none;gradientColor=none;edgeStyle=none;dashed=1;strokeColor=none;points=[[0.02,1.07,0],[0.98,5.76,0]];labelBackgroundColor=#ffffff;rounded=0;html=1;whiteSpace=wrap;verticalAlign=middle;align=center;overflow=width;;html=1;" parent="41" vertex="1">
          <mxGeometry x="46.919999999999995" y="-10" width="88.48" height="24.84" as="geometry" />
        </mxCell>
        <mxCell id="5" style="vsdxID=4;fillColor=none;gradientColor=none;gradientDirection=north;strokeColor=none;spacingLeft=1;spacingRight=1;points=[[0.25,0,0],[0.5,0,0],[0.75,0,0],[1,0.25,0],[1,0.5,0],[1,0.75,0],[0.75,1,0],[0.5,1,0],[0.25,1,0],[0,0.75,0],[0,0.5,0],[0,0.25,0]];labelBackgroundColor=none;rounded=0;html=1;whiteSpace=wrap;" parent="2" vertex="1">
          <mxGeometry width="1137" height="30" as="geometry" />
        </mxCell>
        <mxCell id="6" value="&lt;div style=&quot;font-size: 1px&quot;&gt;&lt;p style=&quot;text-align:center;margin-left:0;margin-right:0;margin-top:0px;margin-bottom:0px;text-indent:0;vertical-align:middle;direction:ltr;&quot;&gt;&lt;/p&gt;&lt;/div&gt;" style="verticalAlign=middle;align=center;overflow=width;vsdxID=5;fillColor=none;gradientColor=none;strokeColor=none;points=[[0.25,0,0],[0.5,0,0],[0.75,0,0],[1,0.25,0],[1,0.5,0],[1,0.75,0],[0.75,1,0],[0.5,1,0],[0.25,1,0],[0,0.75,0],[0,0.5,0],[0,0.25,0]];labelBackgroundColor=none;rounded=0;html=1;whiteSpace=wrap;" parent="5" vertex="1">
          <mxGeometry width="1137" height="30" as="geometry" />
        </mxCell>
        <mxCell id="7" value="&lt;div style=&quot;font-size: 1px&quot;&gt;&lt;font style=&quot;font-size:14.11px;font-family:Calibri;color:#000000;direction:ltr;letter-spacing:0px;line-height:120%;opacity:1&quot;&gt;Охта-парк&lt;br/&gt;&lt;/font&gt;&lt;/div&gt;" style="text;vsdxID=4;fillColor=none;gradientColor=none;gradientDirection=north;strokeColor=none;spacingLeft=1;spacingRight=1;points=[[0.25,0,0],[0.5,0,0],[0.75,0,0],[1,0.25,0],[1,0.5,0],[1,0.75,0],[0.75,1,0],[0.5,1,0],[0.25,1,0],[0,0.75,0],[0,0.5,0],[0,0.25,0]];labelBackgroundColor=none;rounded=0;html=1;whiteSpace=wrap;verticalAlign=middle;align=left;overflow=width;;html=1;" parent="5" vertex="1">
          <mxGeometry width="1137.2" height="30" as="geometry" />
        </mxCell>
        <UserObject label="&lt;div style=&quot;font-size: 1px&quot;&gt;&lt;font style=&quot;font-size:16.93px;font-family:Calibri;color:#000000;direction:ltr;letter-spacing:0px;line-height:120%;opacity:1&quot;&gt;Выбор услуги&lt;br/&gt;&lt;/font&gt;&lt;/div&gt;" tags="Фон" id="8">
          <mxCell style="verticalAlign=middle;align=center;overflow=width;vsdxID=6;fillColor=#ffffff;gradientColor=none;shape=stencil(vVHLDsIgEPwajiQI6RfU+h8bu22JCGRB2/69kG1iazx58DazM/vIjjBtmiCi0CplCjecbZ8nYc5Ca+snJJsLEqYTph0C4Ujh4XvmEaqzont41gkL96naodXKrGF6YSfQtUi0OXXDVlqPfJNP6usotUhYbJIUMmQb/GGrAxpRljVycDBuc1hKM2LclX8/7H9nFfB+82Cd45T2+mcspcSRmu4F);strokeColor=#000000;points=[];labelBackgroundColor=none;rounded=0;html=1;whiteSpace=wrap;" parent="1" vertex="1">
            <mxGeometry x="80" y="961" width="160" height="48" as="geometry" />
          </mxCell>
        </UserObject>
        <UserObject label="&lt;div style=&quot;font-size: 1px&quot;&gt;&lt;font style=&quot;font-size:16.93px;font-family:Calibri;color:#000000;direction:ltr;letter-spacing:0px;line-height:120%;opacity:1&quot;&gt;Сформировать &lt;br/&gt;заказ на аренду&lt;br/&gt;&lt;/font&gt;&lt;/div&gt;" tags="Фон" id="9">
          <mxCell style="verticalAlign=middle;align=center;overflow=width;vsdxID=7;fillColor=#ffffff;gradientColor=none;shape=stencil(vVHLDsIgEPwajiQI6RfU+h8bu22JCGRB2/69kG1iazx58DazM/vIjjBtmiCi0CplCjecbZ8nYc5Ca+snJJsLEqYTph0C4Ujh4XvmEaqzont41gkL96naodXKrGF6YSfQtUi0OXXDVlqPfJNP6usotUhYbJIUMmQb/GGrAxpRljVycDBuc1hKM2LclX8/7H9nFfB+82Cd45T2+mcspcSRmu4F);strokeColor=#000000;points=[];labelBackgroundColor=none;rounded=0;html=1;whiteSpace=wrap;" parent="1" vertex="1">
            <mxGeometry x="384" y="1061" width="160" height="51" as="geometry" />
          </mxCell>
        </UserObject>
        <UserObject label="&lt;div style=&quot;font-size: 1px&quot;&gt;&lt;font style=&quot;font-size:16.93px;font-family:Calibri;color:#000000;direction:ltr;letter-spacing:0px;line-height:120%;opacity:1&quot;&gt;Вход в систему&lt;br/&gt;&lt;/font&gt;&lt;/div&gt;" tags="Фон" id="10">
          <mxCell style="verticalAlign=middle;align=center;overflow=width;vsdxID=8;fillColor=#ffffff;gradientColor=none;shape=stencil(vVHLDsIgEPwajiQI6RfU+h8bu22JCGRB2/69kG1iazx58DazM/vIjjBtmiCi0CplCjecbZ8nYc5Ca+snJJsLEqYTph0C4Ujh4XvmEaqzont41gkL96naodXKrGF6YSfQtUi0OXXDVlqPfJNP6usotUhYbJIUMmQb/GGrAxpRljVycDBuc1hKM2LclX8/7H9nFfB+82Cd45T2+mcspcSRmu4F);strokeColor=#000000;points=[];labelBackgroundColor=none;rounded=0;html=1;whiteSpace=wrap;" parent="1" vertex="1">
            <mxGeometry x="200" y="1061" width="160" height="48" as="geometry" />
          </mxCell>
        </UserObject>
        <UserObject label="&lt;div style=&quot;font-size: 1px&quot;&gt;&lt;font style=&quot;font-size:16.93px;font-family:Calibri;color:#000000;direction:ltr;letter-spacing:0px;line-height:120%;opacity:1&quot;&gt;Отслеживание &lt;br/&gt;всех заказов&lt;br/&gt;&lt;/font&gt;&lt;/div&gt;" tags="Фон" id="13">
          <mxCell style="verticalAlign=middle;align=center;overflow=width;vsdxID=11;fillColor=#ffffff;gradientColor=none;shape=stencil(vVHLDsIgEPwajiQI6RfU+h8bu22JCGRB2/69kG1iazx58DazM/vIjjBtmiCi0CplCjecbZ8nYc5Ca+snJJsLEqYTph0C4Ujh4XvmEaqzont41gkL96naodXKrGF6YSfQtUi0OXXDVlqPfJNP6usotUhYbJIUMmQb/GGrAxpRljVycDBuc1hKM2LclX8/7H9nFfB+82Cd45T2+mcspcSRmu4F);strokeColor=#000000;points=[];labelBackgroundColor=none;rounded=0;html=1;whiteSpace=wrap;" parent="1" vertex="1">
            <mxGeometry x="700" y="1377" width="160" height="51" as="geometry" />
          </mxCell>
        </UserObject>
        <UserObject label="&lt;div style=&quot;font-size: 1px&quot;&gt;&lt;font style=&quot;font-size:16.93px;font-family:Calibri;color:#000000;direction:ltr;letter-spacing:0px;line-height:120%;opacity:1&quot;&gt;Формирование отчётов&lt;br/&gt;&lt;/font&gt;&lt;/div&gt;" tags="Фон" id="14">
          <mxCell style="verticalAlign=middle;align=center;overflow=width;vsdxID=12;fillColor=#ffffff;gradientColor=none;shape=stencil(vVHLDsIgEPwajiQI6RfU+h8bu22JCGRB2/69kG1iazx58DazM/vIjjBtmiCi0CplCjecbZ8nYc5Ca+snJJsLEqYTph0C4Ujh4XvmEaqzont41gkL96naodXKrGF6YSfQtUi0OXXDVlqPfJNP6usotUhYbJIUMmQb/GGrAxpRljVycDBuc1hKM2LclX8/7H9nFfB+82Cd45T2+mcspcSRmu4F);strokeColor=#000000;points=[];labelBackgroundColor=none;rounded=0;html=1;whiteSpace=wrap;" parent="1" vertex="1">
            <mxGeometry x="687" y="1289" width="185" height="48" as="geometry" />
          </mxCell>
        </UserObject>
        <UserObject label="&lt;div style=&quot;font-size: 1px&quot;&gt;&lt;font style=&quot;font-size:16.93px;font-family:Calibri;color:#000000;direction:ltr;letter-spacing:0px;line-height:120%;opacity:1&quot;&gt;Контроль пользователей&lt;br/&gt;&lt;/font&gt;&lt;/div&gt;" tags="Фон" id="15">
          <mxCell style="verticalAlign=middle;align=center;overflow=width;vsdxID=13;fillColor=#ffffff;gradientColor=none;shape=stencil(vVHLDsIgEPwajiQI6RfU+h8bu22JCGRB2/69kG1iazx58DazM/vIjjBtmiCi0CplCjecbZ8nYc5Ca+snJJsLEqYTph0C4Ujh4XvmEaqzont41gkL96naodXKrGF6YSfQtUi0OXXDVlqPfJNP6usotUhYbJIUMmQb/GGrAxpRljVycDBuc1hKM2LclX8/7H9nFfB+82Cd45T2+mcspcSRmu4F);strokeColor=#000000;points=[];labelBackgroundColor=none;rounded=0;html=1;whiteSpace=wrap;" parent="1" vertex="1">
            <mxGeometry x="451" y="1200" width="194" height="48" as="geometry" />
          </mxCell>
        </UserObject>
        <UserObject label="" tags="Фон" id="16">
          <mxCell style="vsdxID=14;fillColor=#ffffff;gradientColor=none;shape=stencil(tZTbDoIwDEC/Zo+QsQnis5f/WHTA4mSkTMW/d6SiQIQg6lu7nna9pYSvy0wUkjBaWjBHeVUHmxG+IYypPJOgrJMI3xK+TgzIFMw5P6BeiJqspZO51BEq9GO0dmH0hmpAUd8hq1U+zIbT0eUIOpfkI2TQRVk4jK6mo01zpmUwva54Njo2gviDyYbz2ehHYccXsbe0Kz+IenibFrB3JniOwl8wpKHpG6pV03A/XrwLRytPVKr0wFhhlck7a6gFpNJzX3mJFunDD03lVcqi9fxNcoO1/iU5J7wuRaK0xkPTtvcvi3vCq8S3dw==);strokeColor=#000000;points=[];labelBackgroundColor=none;rounded=0;html=1;whiteSpace=wrap;" parent="1" vertex="1">
            <mxGeometry x="136" y="639" width="48" height="100" as="geometry" />
          </mxCell>
        </UserObject>
        <mxCell id="17" value="&lt;div style=&quot;font-size: 1px&quot;&gt;&lt;font style=&quot;font-size:16.93px;font-family:Calibri;color:#000000;direction:ltr;letter-spacing:0px;line-height:120%;opacity:1&quot;&gt;Клиент&lt;br/&gt;&lt;/font&gt;&lt;/div&gt;" style="text;vsdxID=14;fillColor=none;gradientColor=none;strokeColor=none;points=[];labelBackgroundColor=none;rounded=0;html=1;whiteSpace=wrap;verticalAlign=middle;align=center;overflow=width;;html=1;" parent="16" vertex="1">
          <mxGeometry x="-9.07" y="100" width="66.15" height="31.61" as="geometry" />
        </mxCell>
        <UserObject label="" tags="Фон" id="19">
          <mxCell style="vsdxID=26;fillColor=#ffffff;gradientColor=none;shape=stencil(tZTbDoIwDEC/Zo+QsQnis5f/WHTA4mSkTMW/d6SiQIQg6lu7nna9pYSvy0wUkjBaWjBHeVUHmxG+IYypPJOgrJMI3xK+TgzIFMw5P6BeiJqspZO51BEq9GO0dmH0hmpAUd8hq1U+zIbT0eUIOpfkI2TQRVk4jK6mo01zpmUwva54Njo2gviDyYbz2ehHYccXsbe0Kz+IenibFrB3JniOwl8wpKHpG6pV03A/XrwLRytPVKr0wFhhlck7a6gFpNJzX3mJFunDD03lVcqi9fxNcoO1/iU5J7wuRaK0xkPTtvcvi3vCq8S3dw==);strokeColor=#000000;points=[];labelBackgroundColor=none;rounded=0;html=1;whiteSpace=wrap;" parent="1" vertex="1">
            <mxGeometry x="192" y="1489" width="48" height="100" as="geometry" />
          </mxCell>
        </UserObject>
        <mxCell id="20" value="&lt;div style=&quot;font-size: 1px&quot;&gt;&lt;font style=&quot;font-size:16.93px;font-family:Calibri;color:#000000;direction:ltr;letter-spacing:0px;line-height:120%;opacity:1&quot;&gt;Продавец&lt;br/&gt;&lt;/font&gt;&lt;/div&gt;" style="text;vsdxID=26;fillColor=none;gradientColor=none;strokeColor=none;points=[];labelBackgroundColor=none;rounded=0;html=1;whiteSpace=wrap;verticalAlign=middle;align=center;overflow=width;;html=1;" parent="19" vertex="1">
          <mxGeometry x="-19.37" y="100" width="86.74" height="31.61" as="geometry" />
        </mxCell>
        <UserObject label="" tags="Фон" id="21">
          <mxCell style="vsdxID=27;fillColor=#ffffff;gradientColor=none;shape=stencil(tZTbDoIwDEC/Zo+QsQnis5f/WHTA4mSkTMW/d6SiQIQg6lu7nna9pYSvy0wUkjBaWjBHeVUHmxG+IYypPJOgrJMI3xK+TgzIFMw5P6BeiJqspZO51BEq9GO0dmH0hmpAUd8hq1U+zIbT0eUIOpfkI2TQRVk4jK6mo01zpmUwva54Njo2gviDyYbz2ehHYccXsbe0Kz+IenibFrB3JniOwl8wpKHpG6pV03A/XrwLRytPVKr0wFhhlck7a6gFpNJzX3mJFunDD03lVcqi9fxNcoO1/iU5J7wuRaK0xkPTtvcvi3vCq8S3dw==);strokeColor=#000000;points=[];labelBackgroundColor=none;rounded=0;html=1;whiteSpace=wrap;" parent="1" vertex="1">
            <mxGeometry x="496" y="639" width="48" height="100" as="geometry" />
          </mxCell>
        </UserObject>
        <mxCell id="22" value="&lt;div style=&quot;font-size: 1px&quot;&gt;&lt;font style=&quot;font-size:16.93px;font-family:Calibri;color:#000000;direction:ltr;letter-spacing:0px;line-height:120%;opacity:1&quot;&gt;Старший смены&lt;br/&gt;&lt;/font&gt;&lt;/div&gt;" style="text;vsdxID=27;fillColor=none;gradientColor=none;strokeColor=none;points=[];labelBackgroundColor=none;rounded=0;html=1;whiteSpace=wrap;verticalAlign=middle;align=center;overflow=width;;html=1;" parent="21" vertex="1">
          <mxGeometry x="-40.78" y="100" width="129.55" height="31.61" as="geometry" />
        </mxCell>
        <UserObject label="" tags="Фон" id="30">
          <mxCell style="vsdxID=73;fillColor=#ffffff;gradientColor=none;shape=stencil(tZTbDoIwDEC/Zo+QsQnis5f/WHTA4mSkTMW/d6SiQIQg6lu7nna9pYSvy0wUkjBaWjBHeVUHmxG+IYypPJOgrJMI3xK+TgzIFMw5P6BeiJqspZO51BEq9GO0dmH0hmpAUd8hq1U+zIbT0eUIOpfkI2TQRVk4jK6mo01zpmUwva54Njo2gviDyYbz2ehHYccXsbe0Kz+IenibFrB3JniOwl8wpKHpG6pV03A/XrwLRytPVKr0wFhhlck7a6gFpNJzX3mJFunDD03lVcqi9fxNcoO1/iU5J7wuRaK0xkPTtvcvi3vCq8S3dw==);strokeColor=#000000;points=[];labelBackgroundColor=none;rounded=0;html=1;whiteSpace=wrap;" parent="1" vertex="1">
            <mxGeometry x="780" y="1489" width="48" height="100" as="geometry" />
          </mxCell>
        </UserObject>
        <mxCell id="31" value="&lt;div style=&quot;font-size: 1px&quot;&gt;&lt;font style=&quot;font-size:16.93px;font-family:Calibri;color:#000000;direction:ltr;letter-spacing:0px;line-height:120%;opacity:1&quot;&gt;Администратор&lt;br/&gt;&lt;/font&gt;&lt;/div&gt;" style="text;vsdxID=73;fillColor=none;gradientColor=none;strokeColor=none;points=[];labelBackgroundColor=none;rounded=0;html=1;whiteSpace=wrap;verticalAlign=middle;align=center;overflow=width;;html=1;" parent="30" vertex="1">
          <mxGeometry x="-40.14" y="100" width="128.29" height="31.61" as="geometry" />
        </mxCell>
        <mxCell id="35" style="vsdxID=89;fillColor=none;gradientColor=none;edgeStyle=none;dashed=1;strokeColor=none;points=[[-0.16,0.99,0],[-10.25,0.02,0]];labelBackgroundColor=#ffffff;rounded=0;html=1;whiteSpace=wrap;;flipH=1;" parent="1" vertex="1">
          <mxGeometry x="319" y="1106" width="187" height="96" as="geometry" />
        </mxCell>
        <mxCell id="36" value="&lt;div style=&quot;font-size: 1px&quot;&gt;&lt;p style=&quot;text-align:center;margin-left:0;margin-right:0;margin-top:0px;margin-bottom:0px;text-indent:0;vertical-align:middle;direction:ltr;&quot;&gt;&lt;font style=&quot;font-size:11.29px;font-family:Calibri;color:#000000;direction:ltr;letter-spacing:0px;line-height:120%;opacity:1&quot;&gt;&amp;lt;&amp;lt;расширить&amp;gt;&amp;gt;&lt;br/&gt;&lt;/font&gt;&lt;/p&gt;&lt;/div&gt;" style="text;vsdxID=89;fillColor=none;gradientColor=none;edgeStyle=none;dashed=1;strokeColor=none;points=[[-0.16,0.99,0],[-10.25,0.02,0]];labelBackgroundColor=#ffffff;rounded=0;html=1;whiteSpace=wrap;verticalAlign=middle;align=center;overflow=width;;html=1;" parent="35" vertex="1">
          <mxGeometry x="9.480000000000018" y="54" width="88.48" height="24.84" as="geometry" />
        </mxCell>
        <UserObject label="&lt;div style=&quot;font-size: 1px&quot;&gt;&lt;font style=&quot;font-size:16.93px;font-family:Calibri;color:#000000;direction:ltr;letter-spacing:0px;line-height:120%;opacity:1&quot;&gt;Принять товар&lt;br/&gt;&lt;/font&gt;&lt;/div&gt;" tags="Фон" id="37">
          <mxCell style="verticalAlign=middle;align=center;overflow=width;vsdxID=94;fillColor=#ffffff;gradientColor=none;shape=stencil(vVHLDsIgEPwajiQI6RfU+h8bu22JCGRB2/69kG1iazx58DazM/vIjjBtmiCi0CplCjecbZ8nYc5Ca+snJJsLEqYTph0C4Ujh4XvmEaqzont41gkL96naodXKrGF6YSfQtUi0OXXDVlqPfJNP6usotUhYbJIUMmQb/GGrAxpRljVycDBuc1hKM2LclX8/7H9nFfB+82Cd45T2+mcspcSRmu4F);strokeColor=#000000;points=[];labelBackgroundColor=none;rounded=0;html=1;whiteSpace=wrap;" parent="1" vertex="1">
            <mxGeometry x="540" y="809" width="160" height="48" as="geometry" />
          </mxCell>
        </UserObject>
        <UserObject label="" tags="Соединительная_линия" id="44">
          <mxCell style="vsdxID=106;fillColor=none;gradientColor=none;edgeStyle=none;strokeColor=#000000;points=[[0.02,1.11,0],[0.99,8.25,0]];labelBackgroundColor=#ffffff;rounded=0;html=1;whiteSpace=wrap;startArrow=none;endArrow=none;startSize=5;endSize=5;spacingTop=0;spacingBottom=0;spacingLeft=0;spacingRight=0;verticalAlign=middle;exitX=0.7916666666666666;exitY=0.7;exitDx=0;exitDy=0;exitPerimeter=0;entryX=0.39375;entryY=0;entryDx=0;entryDy=0;entryPerimeter=0;" parent="1" source="21" target="37" edge="1">
            <mxGeometry relative="1" as="geometry">
              <mxPoint x="-1" y="56" as="offset" />
              <Array as="points" />
            </mxGeometry>
          </mxCell>
        </UserObject>
        <UserObject label="&lt;div style=&quot;font-size: 1px&quot;&gt;&lt;p style=&quot;text-align:center;margin-left:0;margin-right:0;margin-top:0px;margin-bottom:0px;text-indent:0;vertical-align:middle;direction:ltr;&quot;&gt;&lt;font style=&quot;font-size:11.29px;font-family:Calibri;color:#000000;direction:ltr;letter-spacing:0px;line-height:120%;opacity:1&quot;&gt;&amp;lt;&amp;lt;расширить&amp;gt;&amp;gt;&lt;br/&gt;&lt;/font&gt;&lt;/p&gt;&lt;/div&gt;" tags="Соединительная_линия" id="45">
          <mxCell style="vsdxID=101;fillColor=none;gradientColor=none;edgeStyle=none;dashed=1;strokeColor=#000000;points=[[0.02,1.07,0],[0.98,5.76,0]];labelBackgroundColor=#ffffff;rounded=0;html=1;whiteSpace=wrap;verticalAlign=middle;align=center;overflow=width;startArrow=none;endArrow=open;startSize=5;endSize=5;spacingTop=0;spacingBottom=0;spacingLeft=0;spacingRight=0;exitX=0.83125;exitY=0.875;exitDx=0;exitDy=0;exitPerimeter=0;entryX=0.15;entryY=0.13725490196078433;entryDx=0;entryDy=0;entryPerimeter=0;jumpStyle=arc;" parent="1" source="8" target="9" edge="1">
            <mxGeometry relative="1" as="geometry">
              <mxPoint x="-1" y="39" as="offset" />
              <Array as="points">
                <mxPoint x="306.63" y="1034.43" />
              </Array>
            </mxGeometry>
          </mxCell>
        </UserObject>
        <UserObject label="&lt;div style=&quot;font-size: 1px&quot;&gt;&lt;p style=&quot;text-align:center;margin-left:0;margin-right:0;margin-top:0px;margin-bottom:0px;text-indent:0;vertical-align:middle;direction:ltr;&quot;&gt;&lt;font style=&quot;font-size:11.29px;font-family:Calibri;color:#000000;direction:ltr;letter-spacing:0px;line-height:120%;opacity:1&quot;&gt;&amp;lt;&amp;lt;расширить&amp;gt;&amp;gt;&lt;br/&gt;&lt;/font&gt;&lt;/p&gt;&lt;/div&gt;" tags="Соединительная_линия" id="47">
          <mxCell style="vsdxID=89;fillColor=none;gradientColor=none;edgeStyle=none;dashed=1;strokeColor=#000000;points=[[-0.16,0.99,0],[-10.25,0.02,0]];labelBackgroundColor=#ffffff;rounded=0;html=1;whiteSpace=wrap;verticalAlign=middle;align=center;overflow=width;startArrow=none;endArrow=open;startSize=5;endSize=5;spacingTop=0;spacingBottom=0;spacingLeft=0;spacingRight=0;exitX=0.28350515463917525;exitY=0.041666666666666664;exitDx=0;exitDy=0;exitPerimeter=0;entryX=0.75;entryY=0.9375;entryDx=0;entryDy=0;entryPerimeter=0;jumpStyle=arc;" parent="1" source="15" target="10" edge="1">
            <mxGeometry relative="1" as="geometry">
              <mxPoint x="-1" y="-1" as="offset" />
              <Array as="points">
                <mxPoint x="426.4" y="1160.83" />
              </Array>
            </mxGeometry>
          </mxCell>
        </UserObject>
        <UserObject label="" tags="Соединительная_линия" id="48">
          <mxCell style="vsdxID=84;fillColor=none;gradientColor=none;edgeStyle=none;strokeColor=#000000;points=[[0.5,0.98,0],[0.5,0.02,0]];labelBackgroundColor=#ffffff;rounded=0;html=1;whiteSpace=wrap;startArrow=none;endArrow=none;startSize=5;endSize=5;spacingTop=0;spacingBottom=0;spacingLeft=0;spacingRight=0;verticalAlign=middle;exitX=0.5;exitY=0;exitDx=0;exitDy=0;exitPerimeter=0;entryX=0.5027027027027027;entryY=1;entryDx=0;entryDy=0;entryPerimeter=0;" parent="1" source="13" target="14" edge="1">
            <mxGeometry relative="1" as="geometry">
              <mxPoint x="10" y="-1" as="offset" />
              <Array as="points" />
            </mxGeometry>
          </mxCell>
        </UserObject>
        <UserObject label="" tags="Соединительная_линия" id="49">
          <mxCell style="vsdxID=79;fillColor=none;gradientColor=none;edgeStyle=none;strokeColor=#000000;points=[[-0.25,0.98,0],[-0.86,0.02,0]];labelBackgroundColor=#ffffff;rounded=0;html=1;whiteSpace=wrap;startArrow=none;endArrow=none;startSize=5;endSize=5;spacingTop=0;spacingBottom=0;spacingLeft=0;spacingRight=0;verticalAlign=middle;exitX=0.3125;exitY=0.04;exitDx=0;exitDy=0;exitPerimeter=0;entryX=0.525;entryY=1.0196078431372548;entryDx=0;entryDy=0;entryPerimeter=0;" parent="1" source="30" target="13" edge="1">
            <mxGeometry relative="1" as="geometry">
              <mxPoint x="-5" as="offset" />
              <Array as="points" />
            </mxGeometry>
          </mxCell>
        </UserObject>
        <UserObject label="" tags="Соединительная_линия" id="50">
          <mxCell style="vsdxID=74;fillColor=none;gradientColor=none;edgeStyle=none;strokeColor=#000000;points=[[0.02,1.3,0],[0.99,20.41,0]];labelBackgroundColor=#ffffff;rounded=0;html=1;whiteSpace=wrap;startArrow=none;endArrow=none;startSize=5;endSize=5;spacingTop=0;spacingBottom=0;spacingLeft=0;spacingRight=0;verticalAlign=middle;exitX=0.5979381443298969;exitY=0.9791666666666666;exitDx=0;exitDy=0;exitPerimeter=0;entryX=0.08333333333333333;entryY=0.25;entryDx=0;entryDy=0;entryPerimeter=0;" parent="1" source="15" target="30" edge="1">
            <mxGeometry relative="1" as="geometry">
              <mxPoint x="-1" y="140" as="offset" />
              <Array as="points" />
            </mxGeometry>
          </mxCell>
        </UserObject>
        <UserObject label="" tags="Соединительная_линия" id="51">
          <mxCell style="vsdxID=68;fillColor=none;gradientColor=none;edgeStyle=none;strokeColor=#000000;points=[[-0.04,1.36,0],[-2.49,24.41,0]];labelBackgroundColor=#ffffff;rounded=0;html=1;whiteSpace=wrap;startArrow=none;endArrow=none;startSize=5;endSize=5;spacingTop=0;spacingBottom=0;spacingLeft=0;spacingRight=0;verticalAlign=middle;exitX=0.3333333333333333;exitY=1;exitDx=0;exitDy=0;exitPerimeter=0;entryX=0.51875;entryY=0;entryDx=0;entryDy=0;entryPerimeter=0;" parent="1" source="21" target="9" edge="1">
            <mxGeometry relative="1" as="geometry">
              <mxPoint y="167" as="offset" />
              <Array as="points" />
            </mxGeometry>
          </mxCell>
        </UserObject>
        <UserObject label="" tags="Соединительная_линия" id="52">
          <mxCell style="vsdxID=63;fillColor=none;gradientColor=none;edgeStyle=none;strokeColor=#000000;points=[[0.02,0.98,0],[0.99,0.01,0]];labelBackgroundColor=#ffffff;rounded=0;html=1;whiteSpace=wrap;startArrow=none;endArrow=none;startSize=5;endSize=5;spacingTop=0;spacingBottom=0;spacingLeft=0;spacingRight=0;verticalAlign=middle;exitX=0.7708333333333334;exitY=0.25;exitDx=0;exitDy=0;exitPerimeter=0;entryX=0.40625;entryY=1;entryDx=0;entryDy=0;entryPerimeter=0;" parent="1" source="19" target="9" edge="1">
            <mxGeometry relative="1" as="geometry">
              <mxPoint x="-1" as="offset" />
              <Array as="points" />
            </mxGeometry>
          </mxCell>
        </UserObject>
        <UserObject label="" tags="Соединительная_линия" id="54">
          <mxCell style="vsdxID=21;fillColor=none;gradientColor=none;edgeStyle=none;strokeColor=#000000;points=[[0.5,1.25,0],[0.5,17.14,0]];labelBackgroundColor=#ffffff;rounded=0;html=1;whiteSpace=wrap;startArrow=none;endArrow=none;startSize=5;endSize=5;spacingTop=0;spacingBottom=0;spacingLeft=0;spacingRight=0;verticalAlign=middle;exitX=0.5;exitY=1;exitDx=0;exitDy=0;exitPerimeter=0;entryX=0.5;entryY=0;entryDx=0;entryDy=0;entryPerimeter=0;" parent="1" source="16" target="8" edge="1">
            <mxGeometry relative="1" as="geometry">
              <mxPoint x="10" y="117" as="offset" />
              <Array as="points" />
            </mxGeometry>
          </mxCell>
        </UserObject>
        <UserObject label="" tags="Соединительная_линия" id="55">
          <mxCell style="vsdxID=28;fillColor=none;gradientColor=none;edgeStyle=none;strokeColor=#000000;points=[[0.02,0.98,0],[0.99,0.01,0]];labelBackgroundColor=#ffffff;rounded=0;html=1;whiteSpace=wrap;startArrow=none;endArrow=none;startSize=5;endSize=5;spacingTop=0;spacingBottom=0;spacingLeft=0;spacingRight=0;verticalAlign=middle;exitX=0.625;exitY=0.02;exitDx=0;exitDy=0;exitPerimeter=0;entryX=0.475;entryY=1;entryDx=0;entryDy=0;entryPerimeter=0;" parent="1" source="19" target="10" edge="1">
            <mxGeometry relative="1" as="geometry">
              <mxPoint y="-1" as="offset" />
              <Array as="points" />
            </mxGeometry>
          </mxCell>
        </UserObject>
        <UserObject label="" tags="Соединительная_линия" id="56">
          <mxCell style="vsdxID=38;fillColor=none;gradientColor=none;edgeStyle=none;strokeColor=#000000;points=[[-0.18,1.39,0],[-11.61,26.34,0]];labelBackgroundColor=#ffffff;rounded=0;html=1;whiteSpace=wrap;startArrow=none;endArrow=none;startSize=5;endSize=5;spacingTop=0;spacingBottom=0;spacingLeft=0;spacingRight=0;verticalAlign=middle;exitX=0.1875;exitY=0.73;exitDx=0;exitDy=0;exitPerimeter=0;entryX=0.5875;entryY=0;entryDx=0;entryDy=0;entryPerimeter=0;" parent="1" source="21" target="10" edge="1">
            <mxGeometry relative="1" as="geometry">
              <mxPoint y="181" as="offset" />
              <Array as="points" />
            </mxGeometry>
          </mxCell>
        </UserObject>
      </root>
    </mxGraphModel>
  </diagram>
</mxfile>
